# ProBuilder 4.2.3
# https://unity3d.com/unity/features/worldbuilding/probuilder
# 18/12/2020 18:54:18

mtllib ./Cone.mtl
o Cone

g Cone
v -0.75 -0.5 0
v -0.7355889 -0.5 0.1463178
v 0 0.5 0
v 0 -0.5 0
v -0.6929096 -0.5 0.2870126
v -0.6236022 -0.5 0.4166777
v -0.5303301 -0.5 0.5303301
v -0.4166777 -0.5 0.6236022
v -0.2870126 -0.5 0.6929096
v -0.1463178 -0.5 0.7355889
v 5.960464E-08 -0.5 0.75
v 0.1463177 -0.5 0.7355889
v 0.2870126 -0.5 0.6929097
v 0.4166777 -0.5 0.6236023
v 0.5303301 -0.5 0.5303301
v 0.6236023 -0.5 0.4166777
v 0.6929096 -0.5 0.2870126
v 0.735589 -0.5 0.1463177
v 0.75 -0.5 -6.556708E-08
v 0.735589 -0.5 -0.1463177
v 0.6929096 -0.5 -0.2870126
v 0.6236022 -0.5 -0.4166777
v 0.5303302 -0.5 -0.5303301
v 0.4166778 -0.5 -0.6236021
v 0.2870127 -0.5 -0.6929096
v 0.1463178 -0.5 -0.7355889
v 0 -0.5 -0.75
v -0.1463178 -0.5 -0.7355889
v -0.2870127 -0.5 -0.6929096
v -0.4166775 -0.5 -0.6236023
v -0.53033 -0.5 -0.5303302
v -0.6236022 -0.5 -0.4166777
v -0.6929097 -0.5 -0.2870126
v -0.735589 -0.5 -0.1463177

vt 0 5.389924E-10
vt 0.1470257 0
vt 0.07351312 1.247836
vt -0.75 0
vt -0.7355889 0.1463178
vt -0.6929096 0.2870126
vt -0.6236022 0.4166777
vt -0.5303301 0.5303301
vt -0.4166777 0.6236022
vt -0.2870126 0.6929096
vt -0.1463178 0.7355889
vt 5.960464E-08 0.75
vt 0.1463177 0.7355889
vt 0.2870126 0.6929097
vt 0.4166777 0.6236023
vt 0.5303301 0.5303301
vt 0.6236023 0.4166777
vt 0.6929096 0.2870126
vt 0.735589 0.1463177
vt 0.75 -6.556708E-08
vt 0.735589 -0.1463177
vt 0.6929096 -0.2870126
vt 0.6236022 -0.4166777
vt 0.5303302 -0.5303301
vt 0.4166778 -0.6236021
vt 0.2870127 -0.6929096
vt 0.1463178 -0.7355889
vt 0 -0.75
vt -0.1463178 -0.7355889
vt -0.2870127 -0.6929096
vt -0.4166775 -0.6236023
vt -0.53033 -0.5303302
vt -0.6236022 -0.4166777
vt -0.6929097 -0.2870126
vt -0.735589 -0.1463177

vn -0.7975281 0.5981461 0.07854995
vn 0 -1 0
vn -0.7668796 0.5981461 0.2326304
vn -0.7067605 0.5981461 0.377771
vn -0.6194805 0.5981461 0.5083948
vn -0.5083948 0.5981461 0.6194805
vn -0.377771 0.5981461 0.7067605
vn -0.2326304 0.5981461 0.7668796
vn -0.0785499 0.5981461 0.7975281
vn 0.07855 0.5981461 0.7975281
vn 0.2326301 0.5981461 0.7668797
vn 0.3777709 0.5981462 0.7067605
vn 0.508395 0.5981461 0.6194802
vn 0.6194804 0.5981461 0.5083949
vn 0.7067605 0.5981461 0.3777709
vn 0.7668794 0.5981461 0.2326309
vn 0.7975282 0.5981462 0.07854928
vn 0.7975282 0.5981461 -0.07854936
vn 0.7668794 0.5981461 -0.2326309
vn 0.7067603 0.5981461 -0.3777712
vn 0.6194808 0.5981461 -0.5083943
vn 0.5083944 0.5981461 -0.6194807
vn 0.3777715 0.5981461 -0.7067602
vn 0.2326303 0.5981461 -0.7668797
vn 0.07854993 0.5981461 -0.7975281
vn -0.0785499 0.5981461 -0.7975281
vn -0.2326304 0.5981461 -0.7668796
vn -0.3777713 0.5981461 -0.7067602
vn -0.5083943 0.5981461 -0.6194808
vn -0.6194805 0.5981462 -0.5083947
vn -0.7067603 0.5981461 -0.3777712
vn -0.7668796 0.5981461 -0.2326303
vn -0.7975281 0.5981461 -0.07854966

usemtl ProBuilderDefault
f 1/1/1 2/2/1 3/3/1
f 4/1/2 2/5/2 1/4/2
f 2/1/3 5/2/3 3/3/3
f 4/1/2 5/6/2 2/5/2
f 5/1/4 6/2/4 3/3/4
f 4/1/2 6/7/2 5/6/2
f 6/1/5 7/2/5 3/3/5
f 4/1/2 7/8/2 6/7/2
f 7/1/6 8/2/6 3/3/6
f 4/1/2 8/9/2 7/8/2
f 8/1/7 9/2/7 3/3/7
f 4/1/2 9/10/2 8/9/2
f 9/1/8 10/2/8 3/3/8
f 4/1/2 10/11/2 9/10/2
f 10/1/9 11/2/9 3/3/9
f 4/1/2 11/12/2 10/11/2
f 11/1/10 12/2/10 3/3/10
f 4/1/2 12/13/2 11/12/2
f 12/1/11 13/2/11 3/3/11
f 4/1/2 13/14/2 12/13/2
f 13/1/12 14/2/12 3/3/12
f 4/1/2 14/15/2 13/14/2
f 14/1/13 15/2/13 3/3/13
f 4/1/2 15/16/2 14/15/2
f 15/1/14 16/2/14 3/3/14
f 4/1/2 16/17/2 15/16/2
f 16/1/15 17/2/15 3/3/15
f 4/1/2 17/18/2 16/17/2
f 17/1/16 18/2/16 3/3/16
f 4/1/2 18/19/2 17/18/2
f 18/1/17 19/2/17 3/3/17
f 4/1/2 19/20/2 18/19/2
f 19/1/18 20/2/18 3/3/18
f 4/1/2 20/21/2 19/20/2
f 20/1/19 21/2/19 3/3/19
f 4/1/2 21/22/2 20/21/2
f 21/1/20 22/2/20 3/3/20
f 4/1/2 22/23/2 21/22/2
f 22/1/21 23/2/21 3/3/21
f 4/1/2 23/24/2 22/23/2
f 23/1/22 24/2/22 3/3/22
f 4/1/2 24/25/2 23/24/2
f 24/1/23 25/2/23 3/3/23
f 4/1/2 25/26/2 24/25/2
f 25/1/24 26/2/24 3/3/24
f 4/1/2 26/27/2 25/26/2
f 26/1/25 27/2/25 3/3/25
f 4/1/2 27/28/2 26/27/2
f 27/1/26 28/2/26 3/3/26
f 4/1/2 28/29/2 27/28/2
f 28/1/27 29/2/27 3/3/27
f 4/1/2 29/30/2 28/29/2
f 29/1/28 30/2/28 3/3/28
f 4/1/2 30/31/2 29/30/2
f 30/1/29 31/2/29 3/3/29
f 4/1/2 31/32/2 30/31/2
f 31/1/30 32/2/30 3/3/30
f 4/1/2 32/33/2 31/32/2
f 32/1/31 33/2/31 3/3/31
f 4/1/2 33/34/2 32/33/2
f 33/1/32 34/2/32 3/3/32
f 4/1/2 34/35/2 33/34/2
f 34/1/33 1/2/33 3/3/33
f 4/1/2 1/4/2 34/35/2

